<?xml version="1.0" encoding="UTF-8"?>
<svg width="24px" height="24px" viewBox="0 0 24 24" version="1.1" xmlns="http://www.w3.org/2000/svg" xmlns:xlink="http://www.w3.org/1999/xlink">
    <!-- Generator: Sketch 61.2 (89653) - https://sketch.com -->
    <title>Icon / fa-external-link-square</title>
    <desc>Created with Sketch.</desc>
    <defs>
        <rect id="path-1" x="0" y="0" width="24" height="24"></rect>
        <path d="M19.8571429,2 L4.14285714,2 C2.959375,2 2,2.959375 2,4.14285714 L2,19.8571429 C2,21.040625 2.959375,22 4.14285714,22 L19.8571429,22 C21.040625,22 22,21.040625 22,19.8571429 L22,4.14285714 C22,2.959375 21.040625,2 19.8571429,2 Z M19.5892857,19.8571429 L4.41071429,19.8571429 C4.26278087,19.8571429 4.14285714,19.7372191 4.14285714,19.5892857 L4.14285714,4.41071429 C4.14285714,4.26278087 4.26278087,4.14285714 4.41071429,4.14285714 L19.5892857,4.14285714 C19.7372191,4.14285714 19.8571429,4.26278087 19.8571429,4.41071429 L19.8571429,19.5892857 C19.8571429,19.7372191 19.7372191,19.8571429 19.5892857,19.8571429 L19.5892857,19.8571429 Z M17.1785714,6.28571429 L11.1071429,6.2921875 C10.8112946,6.2921875 10.5714286,6.53205357 10.5714286,6.82790179 L10.5714286,8.06696429 C10.5714286,8.36705357 10.8179464,8.60861607 11.1179911,8.60258929 L13.7073214,8.50700893 L6.44263393,15.7716518 C6.2334375,15.9808482 6.2334375,16.3200446 6.44263393,16.5292857 L7.47075893,17.5573661 C7.67995536,17.7665625 8.01915179,17.7665625 8.22834821,17.5573661 L15.4930357,10.2926786 L15.3974554,12.8820089 C15.3913839,13.1820536 15.6329464,13.4285268 15.9330804,13.4285268 L17.1721429,13.4285268 C17.4680357,13.4285268 17.7078571,13.1886607 17.7078571,12.8928125 L17.7142857,6.82142857 C17.7142857,6.52558036 17.4744196,6.28571429 17.1785714,6.28571429 Z" id="path-3"></path>
    </defs>
    <g id="Icon-/-fa-external-link-square" stroke="none" stroke-width="1" fill="none" fill-rule="evenodd">
        <mask id="mask-2" fill="white">
            <use xlink:href="#path-1"></use>
        </mask>
        <g id="Container" fill-rule="nonzero"></g>
        <mask id="mask-4" fill="white">
            <use xlink:href="#path-3"></use>
        </mask>
        <use id="shape" fill="#676767" fill-rule="nonzero" xlink:href="#path-3"></use>
        <g id="Style-/-Color-/-Racecar-Red" mask="url(#mask-4)" fill="#000">
            <rect id="Container" x="0" y="0" width="24" height="24"></rect>
        </g>
    </g>
</svg>