<svg xmlns="http://www.w3.org/2000/svg" width="81" height="70" viewBox="0 0 81 70">
    <g fill="none" fill-rule="evenodd">
        <g fill-rule="nonzero">
            <g>
                <g>
                    <g>
                        <g>
                            <g>
                                <path fill="#6E7171" d="M8.445 70h53.108c1.945 0 1.945-2.917 0-2.917-3.053 0-5.528-2.476-5.528-5.53 0-.805-.653-1.458-1.459-1.458H1.458c-.805 0-1.458.653-1.458 1.458C0 66.218 3.781 70 8.445 70zm44.812-6.86c.273 1.44.912 2.749 1.816 3.83l.099.113H8.445l-.284-.007c-2.356-.12-4.323-1.714-4.996-3.878l-.053-.186h50.123l.022.128z" transform="translate(-715.000000, -2381.000000) translate(98.000000, 1943.000000) translate(241.501818, 50.000000) translate(278.498182, 388.000000) translate(43.000000, 0.000000) translate(54.000000, 0.000000)"/>
                                <path fill="#6E7171" d="M62.952 0H18.229c-3.88 0-7.05 3.169-7.05 7.048v54.505l.01.17c.085.726.701 1.289 1.449 1.289h40.597l.022.128c.742 3.906 4.175 6.86 8.296 6.86C66.217 70 70 66.217 70 61.553V7.048C70 3.168 66.831 0 62.952 0zM18.229 2.917h44.723c2.269 0 4.131 1.862 4.131 4.131v54.505c0 3.054-2.476 5.53-5.53 5.53-3.053 0-5.528-2.476-5.528-5.53l-.01-.17c-.084-.725-.7-1.288-1.449-1.288h-40.47V7.048c0-2.268 1.864-4.131 4.133-4.131z" transform="translate(-715.000000, -2381.000000) translate(98.000000, 1943.000000) translate(241.501818, 50.000000) translate(278.498182, 388.000000) translate(43.000000, 0.000000) translate(54.000000, 0.000000)"/>
                                <path fill="#E90649" d="M40.59 48.844H23.819c-.805 0-1.458.653-1.458 1.458v.14c0 .806.653 1.459 1.458 1.459h16.77c.806 0 1.46-.653 1.46-1.459v-.14c0-.805-.654-1.458-1.46-1.458zM57.36 41.857H23.82c-.805 0-1.458.653-1.458 1.458v.14c0 .806.653 1.459 1.458 1.459h33.542c.805 0 1.458-.653 1.458-1.459v-.14c0-.805-.653-1.458-1.458-1.458zM57.36 34.869H23.82c-.805 0-1.458.653-1.458 1.458v.14c0 .805.653 1.458 1.458 1.458h33.542c.805 0 1.458-.653 1.458-1.458v-.14c0-.805-.653-1.458-1.458-1.458z" transform="translate(-715.000000, -2381.000000) translate(98.000000, 1943.000000) translate(241.501818, 50.000000) translate(278.498182, 388.000000) translate(43.000000, 0.000000) translate(54.000000, 0.000000)"/>
                                <path fill="#6E7171" d="M45.357 8.315l-.17.01c-.335.04-.635.191-.861.418l-.07.07c-.264.263-.427.628-.427 1.03V22.04c0 .805.653 1.458 1.458 1.458h.139l.17-.01c.725-.084 1.288-.7 1.288-1.448v-4.572h.808l4.475 5.334-2.374 2.83c-.518.618-.437 1.54.182 2.056l.107.09.147.108c.609.391 1.427.279 1.905-.29l2.029-2.418 2.027 2.418c.514.613 1.427.697 2.044.188l.108-.09.135-.125c.5-.53.536-1.364.055-1.937l-2.374-2.831 2.374-2.826c.518-.618.437-1.538-.18-2.056l-.109-.09-.147-.109c-.609-.393-1.429-.28-1.906.29l-2.027 2.414-2.701-3.22.192-.072c1.672-.681 2.853-2.324 2.853-4.239 0-2.526-2.051-4.578-4.577-4.578h-4.573zm1.388 6.236v-3.319h3.185c.914 0 1.66.746 1.66 1.661 0 .914-.745 1.658-1.66 1.658h-1.375l-.093.005-.09-.005h-1.627z" transform="translate(-715.000000, -2381.000000) translate(98.000000, 1943.000000) translate(241.501818, 50.000000) translate(278.498182, 388.000000) translate(43.000000, 0.000000) translate(54.000000, 0.000000)"/>
                            </g>
                        </g>
                    </g>
                </g>
            </g>
        </g>
    </g>
</svg>
