<svg xmlns="http://www.w3.org/2000/svg" xmlns:xlink="http://www.w3.org/1999/xlink" width="167" height="64" viewBox="0 0 156 60">
    <defs>
        <path id="a" d="M7.199.628a.548.548 0 0 0-.053.057L.402 8.3c-.465.529-.46 1.325.034 1.816.49.492 1.287.499 1.817.033L9.87 3.408l.056-.055c.637-.637.544-1.764-.209-2.516C9.3.419 8.767.205 8.267.205c-.403 0-.784.138-1.068.423"/>
        <linearGradient id="b" x1="3.651%" x2="93.859%" y1="96.348%" y2="6.141%">
            <stop offset="0%" stop-color="#FBC4D1"/>
            <stop offset="100%" stop-color="#ED1749"/>
        </linearGradient>
        <path id="d" d="M11.043.37L.37 8.965c-.306.25-.277.8.038 1.213v-.001c.317.412.84.582 1.161.352L12.634 2.44c.343-.251.255-.932-.183-1.504-.322-.42-.75-.672-1.086-.672a.5.5 0 0 0-.322.105"/>
        <linearGradient id="e" x1="1.989%" x2="96.895%" y1="80.446%" y2="20.949%">
            <stop offset="0%" stop-color="#FBC4D1"/>
            <stop offset="100%" stop-color="#ED1749"/>
        </linearGradient>
        <path id="g" d="M12.378.169L.49 7.569c-.341.216-.369.796-.086 1.276.282.479.803.736 1.158.542L13.797 2.58c.18-.1.27-.314.274-.583V1.96c-.005-.294-.108-.647-.308-.984h.001C13.451.444 12.99.1 12.628.1a.461.461 0 0 0-.25.069"/>
        <linearGradient id="h" x1="1.391%" x2="97.794%" y1="69.813%" y2="31.494%">
            <stop offset="0%" stop-color="#FBC4D1"/>
            <stop offset="100%" stop-color="#ED1749"/>
        </linearGradient>
        <path id="j" d="M9.682.204l-9.39 9.83c-.269.288-.177.819.178 1.174.357.357.889.448 1.174.18l9.832-9.39c.305-.29.139-.94-.359-1.436-.326-.327-.72-.511-1.034-.511a.534.534 0 0 0-.4.153"/>
        <linearGradient id="k" x1="2.914%" x2="95.553%" y1="97.087%" y2="4.449%">
            <stop offset="0%" stop-color="#FBC4D1"/>
            <stop offset="100%" stop-color="#ED1749"/>
        </linearGradient>
        <path id="m" d="M12.728.299c-.01.003-.019.009-.028.014L.43 6.368c-.42.217-.551.838-.297 1.39.25.551.803.855 1.241.686L14.012 3.19l.029-.012c.569-.26.737-1.115.375-1.909C14.124.63 13.579.224 13.08.224a.844.844 0 0 0-.352.075"/>
        <linearGradient id="n" x1=".937%" x2="98.689%" y1="63.243%" y2="38.024%">
            <stop offset="0%" stop-color="#FBC4D1"/>
            <stop offset="100%" stop-color="#ED1749"/>
        </linearGradient>
        <path id="p" d="M12.322.214l-.051.022L.69 5.493c-.578.261-.83.962-.578 1.583.25.62.92.944 1.514.736l11.985-4.263.05-.02c.683-.276.939-1.242.568-2.158C13.928.623 13.3.14 12.708.14c-.131 0-.262.024-.386.074"/>
        <linearGradient id="q" x1=".675%" x2="98.818%" y1="61.467%" y2="40.146%">
            <stop offset="0%" stop-color="#FBC4D1"/>
            <stop offset="100%" stop-color="#ED1749"/>
        </linearGradient>
        <path id="s" d="M10.227.403c-.022.01-.045.025-.066.037L.694 6.064C.089 6.431-.142 7.19.178 7.807c.323.617 1.078.862 1.724.577L11.94 3.856c.022-.01.046-.022.068-.035.8-.415 1.05-1.519.558-2.462-.364-.7-1.032-1.115-1.679-1.115a1.42 1.42 0 0 0-.66.16"/>
        <linearGradient id="t" x1="1.128%" x2="98.028%" y1="67.353%" y2="34.765%">
            <stop offset="0%" stop-color="#FBC4D1"/>
            <stop offset="100%" stop-color="#ED1749"/>
        </linearGradient>
        <path id="v" d="M8.391.453L.305 11.519c-.23.32-.06.845.352 1.161.411.316.96.344 1.212.038l8.594-10.675c.269-.33.006-.966-.566-1.405C9.561.38 9.188.243 8.886.243c-.213 0-.39.068-.495.21"/>
        <linearGradient id="w" x1="19.55%" x2="79.044%" y1="98.001%" y2="3.103%">
            <stop offset="0%" stop-color="#FBC4D1"/>
            <stop offset="100%" stop-color="#ED1749"/>
        </linearGradient>
        <path id="y" d="M7.724.145c-.275 0-.495.09-.597.273L.321 12.653c-.194.353.061.876.54 1.158.481.281 1.06.253 1.277-.087l7.4-11.886c.23-.369-.141-.996-.806-1.387-.342-.202-.7-.305-.998-.306h-.01z"/>
        <linearGradient id="z" x1="30.186%" x2="68.506%" y1="98.617%" y2="2.206%">
            <stop offset="0%" stop-color="#FBC4D1"/>
            <stop offset="100%" stop-color="#ED1749"/>
        </linearGradient>
        <path id="B" d="M5.402.737c-.004.01-.01.02-.013.03L.137 13.402c-.17.439.133.994.685 1.244.552.251 1.173.122 1.39-.297l6.054-12.27.015-.029c.26-.57-.175-1.325-.97-1.688a2.05 2.05 0 0 0-.844-.19c-.485 0-.898.2-1.065.565"/>
        <linearGradient id="C" x1="36.75%" x2="61.974%" y1="99.072%" y2="1.308%">
            <stop offset="0%" stop-color="#FBC4D1"/>
            <stop offset="100%" stop-color="#ED1749"/>
        </linearGradient>
        <path id="E" d="M4.487.837c-.007.016-.013.033-.018.05L.205 12.867c-.208.595.115 1.266.735 1.517.621.25 1.324-.002 1.584-.58L7.78 2.226c.008-.017.017-.033.022-.05.277-.685-.24-1.54-1.155-1.91a2.275 2.275 0 0 0-.847-.169c-.604 0-1.123.268-1.312.74"/>
        <linearGradient id="F" x1="38.532%" x2="59.853%" y1="99.33%" y2="1.176%">
            <stop offset="0%" stop-color="#FBC4D1"/>
            <stop offset="100%" stop-color="#ED1749"/>
        </linearGradient>
        <path id="H" d="M4.758 1.08l-.033.07-4.53 10.035c-.283.648-.038 1.403.578 1.723.617.322 1.378.089 1.742-.514l5.624-9.467c.014-.021.025-.045.04-.067.415-.8-.015-1.847-.958-2.338A2.172 2.172 0 0 0 6.217.269c-.621 0-1.186.289-1.459.811"/>
        <linearGradient id="I" x1="32.648%" x2="65.237%" y1="98.875%" y2="1.977%">
            <stop offset="0%" stop-color="#FBC4D1"/>
            <stop offset="100%" stop-color="#ED1749"/>
        </linearGradient>
    </defs>
    <g fill="none" fill-rule="evenodd">
        <path fill="#364544" d="M114.622 16.987h.44c.261 0 .38-.09.38-.373 0-.276-.149-.373-.462-.373h-.358v.746zm.433.358h-.433v.888h-.425v-2.35h.783c.604 0 .88.187.88.709 0 .365-.09.582-.373.7l.425.94h-.462l-.395-.887zm-.03 1.417c.932 0 1.64-.768 1.64-1.708 0-.954-.715-1.715-1.64-1.715-.94 0-1.634.76-1.634 1.715 0 .932.701 1.708 1.634 1.708zm0-3.744c1.178 0 1.984.91 1.984 2.036 0 1.112-.813 2.037-1.984 2.037-1.186 0-1.962-.918-1.962-2.037 0-1.111.776-2.036 1.962-2.036z"/>
        <path fill="#231F20" d="M47.948 44.749c0-1.454.944-2.436 3.529-2.436h.115c.188 0 .284.076.284.284v.548c0 .207-.096.282-.284.282h-.115c-1.679 0-2.169.566-2.169 1.454v12.347c0 .887.49 1.454 2.169 1.454h.115c.188 0 .284.076.284.283v.548c0 .206-.096.283-.284.283h-.115c-2.585 0-3.529-.982-3.529-2.435V44.749zM57.456 47.153c.19 0 .284.075.284.264v.528c0 .188-.094.283-.284.283h-2.114v5.644c0 .889.51 1.455 2.19 1.455h.32c.19 0 .284.076.284.283v.547c0 .208-.094.283-.283.283h-.492c-2.586 0-3.34-.905-3.34-2.435v-5.777h-1.133c-.188 0-.265-.095-.265-.283v-.453c0-.188.077-.264.265-.283l.98-.056h.153v-2.002c0-.188.092-.283.282-.283h.774c.188 0 .265.095.265.283v2.002h2.114zM65.963 49.493c0-.886-.587-1.453-2.266-1.453-1.66 0-2.246.567-2.246 1.453v4.57c0 .886.586 1.453 2.246 1.453 1.679 0 2.266-.567 2.266-1.454v-4.57zm-5.816-.094c0-1.454.964-2.435 3.55-2.435 2.585 0 3.57.98 3.57 2.435v4.758c0 1.453-.985 2.435-3.57 2.435-2.586 0-3.55-.982-3.55-2.435v-4.758zM70.713 47.153v-1.625c0-1.433.945-2.416 3.53-2.416h.115c.188 0 .283.075.283.265v.566c0 .189-.095.283-.283.283h-.114c-1.681 0-2.21.566-2.21 1.433v1.494h2.059c.188 0 .282.075.282.264v.528c0 .188-.094.283-.282.283h-2.059v7.929c0 .189-.073.283-.282.283h-.755c-.19 0-.284-.094-.284-.283v-7.929h-1.17c-.188 0-.265-.095-.265-.283v-.453c0-.188.077-.264.265-.283l1.017-.056h.153zM81.903 54.44v-2.21h-3.002c-1.02 0-1.435.529-1.435 1.36v.604c0 .83.509 1.302 1.643 1.302 1.357 0 2.357-.717 2.794-1.056zm-5.513-5.08c0-1.415.849-2.396 3.398-2.396 2.585 0 3.398.98 3.398 2.396v6.799c0 .187-.076.281-.263.281h-.68c-.209 0-.266-.094-.286-.281l-.036-.682c-.548.434-1.604 1.115-3.114 1.115-1.756 0-2.605-1.001-2.605-2.228v-.944c0-1.228.812-2.228 2.454-2.228h3.247v-1.7c0-.848-.453-1.452-2.135-1.452-1.68 0-2.151.567-2.151 1.415v.226c0 .208-.076.302-.284.302h-.68c-.186 0-.263-.094-.263-.302v-.321zM92.608 49.4v.357c0 .189-.076.284-.284.284h-.698c-.208 0-.284-.095-.284-.284v-.283c0-.867-.472-1.434-2.152-1.434-1.68 0-2.153.567-2.153 1.434v4.588c0 .887.472 1.454 2.153 1.454 1.68 0 2.152-.567 2.152-1.454v-.416c0-.208.076-.282.284-.282h.698c.208 0 .284.074.284.282v.51c0 1.454-.87 2.436-3.455 2.436-2.587 0-3.417-.982-3.417-2.435V49.4c0-1.455.848-2.436 3.435-2.436s3.437.98 3.437 2.436M96.298 56.159c0 .187-.074.281-.262.281h-.756c-.208 0-.285-.094-.285-.281v-8.76c0-.19.077-.284.285-.284h.756c.188 0 .262.094.262.283v8.76zm0-10.876c0 .189-.074.283-.262.283h-.756c-.208 0-.285-.094-.285-.283v-1.755c0-.19.077-.284.285-.284h.756c.188 0 .262.094.262.284v1.755zM103.32 47.153c.19 0 .285.075.285.264v.528c0 .188-.094.283-.285.283h-2.112v5.644c0 .889.51 1.455 2.189 1.455h.32c.19 0 .284.076.284.283v.549c0 .207-.094.281-.283.281h-.49c-2.588 0-3.343-.905-3.343-2.435v-5.777h-1.132c-.188 0-.265-.095-.265-.283v-.453c0-.188.077-.264.265-.283l.98-.056h.152v-2.002c0-.188.095-.283.283-.283h.774c.188 0 .266.095.266.283v2.002h2.112zM107.524 56.159c0 .187-.077.281-.265.281h-.756c-.208 0-.282-.094-.282-.281v-8.76c0-.19.074-.284.282-.284h.756c.188 0 .265.094.265.283v8.76zm0-10.876c0 .189-.077.283-.265.283h-.756c-.208 0-.282-.094-.282-.283v-1.755c0-.19.074-.284.282-.284h.756c.188 0 .265.094.265.284v1.755zM111.494 47.398l.04.717c.526-.454 1.622-1.15 3.226-1.15 1.756 0 2.605.98 2.605 2.321v6.873c0 .187-.073.281-.263.281h-.758c-.187 0-.281-.094-.281-.281v-6.59c0-.85-.454-1.436-1.66-1.436-1.4 0-2.419.718-2.854 1.058v6.968c0 .187-.073.281-.261.281h-.758c-.206 0-.281-.094-.281-.281v-8.76c0-.19.075-.284.281-.284h.68c.208 0 .266.094.284.283M121.347 56.159c0 .187-.076.281-.264.281h-.755c-.209 0-.283-.094-.283-.281v-8.76c0-.19.074-.284.283-.284h.755c.188 0 .264.094.264.283v8.76zm0-10.876c0 .189-.076.283-.264.283h-.755c-.209 0-.283-.094-.283-.283v-1.755c0-.19.074-.284.283-.284h.755c.188 0 .264.094.264.284v1.755zM129.887 49.569c0-.774-.434-1.416-1.661-1.416-1.417 0-2.419.736-2.852 1.076v5.117c.433.32 1.435 1.057 2.852 1.057 1.227 0 1.66-.642 1.66-1.417V49.57zm-5.532 6.871c-.206 0-.284-.094-.284-.281V43.528c0-.19.078-.284.284-.284h.758c.186 0 .26.094.26.284v4.549c.549-.416 1.606-1.113 3.211-1.113 1.793 0 2.606.98 2.606 2.416v4.796c0 1.434-.813 2.416-2.606 2.416-1.623 0-2.7-.699-3.227-1.133l-.04.7c-.018.187-.074.281-.282.281h-.68zM135.948 57.36c0 1.454-.943 2.436-3.528 2.436h-.095c-.208 0-.283-.077-.283-.283v-.548c0-.207.075-.283.283-.283h.095c1.678 0 2.189-.567 2.189-1.454V44.882c0-.888-.51-1.455-2.19-1.455h-.094c-.208 0-.283-.075-.283-.282v-.548c0-.207.075-.284.283-.284h.095c2.585 0 3.528.982 3.528 2.436V57.36z"/>
        <path fill="#364544" d="M15.87 35.364c.212.365.15.76-.395.76h-3.04c-.545 0-.848-.364-1.092-.76l-3.645-6.257-3.311 6.257c-.213.396-.547.76-1.093.76H.438c-.517 0-.517-.486-.303-.88l5.497-9.781-5.284-9.145c-.275-.455-.244-.85.301-.85h3.038c.547 0 .851.304 1.125.76l3.372 5.833 3.159-5.833c.244-.456.578-.76 1.093-.76h2.826c.515 0 .607.334.364.76l-5.468 9.295 5.711 9.841zM19.501 36.125c-.546 0-.727-.244-.727-.79V16.258c0-.546.181-.79.727-.79h10.39c.516 0 .76.182.76.73v1.913c0 .547-.244.759-.76.759h-7.018v4.92h6.5c.549 0 .792.183.792.73v1.822c0 .518-.243.73-.792.73h-6.5v5.65h7.32c.549 0 .761.183.761.73v1.912c0 .548-.212.76-.761.76H19.5zM38.067 32.722h6.457c.518 0 .76.183.76.73v1.912c0 .548-.242.76-.76.76h-9.92c-.454 0-.637-.273-.637-.79V16.259c0-.546.183-.79.729-.79h2.642c.547 0 .73.244.73.79v16.464zM50.94 30.687c0 1.52.819 2.278 2.611 2.278 1.791 0 2.43-.759 2.43-2.278V16.258c0-.546.212-.79.73-.79h2.642c.546 0 .73.244.73.79v15.158c0 2.552-1.398 4.951-6.532 4.951-5.105 0-6.336-2.4-6.336-4.95v-1.824c0-.546.214-.76.76-.76h2.234c.548 0 .73.214.73.76v1.094zM67.849 28.382l1.987-8.002 1.897 8.002h-3.884zm4.373-12.262c-.153-.521-.43-.765-.979-.765h-2.661c-.55 0-.795.244-.947.765l-5.718 19.265c-.154.49.03.765.582.765h2.476c.551 0 .764-.275.917-.765l1.07-3.731h5.689l1.069 3.731c.153.49.366.765.886.765h2.754c.518 0 .702-.275.55-.765L72.222 16.12zM95.31 35.364c0 .517-.181.76-.727.76h-2.4c-.396 0-.546-.09-.7-.364L85.62 25.706c-.82-1.368-1.186-2.37-1.215-2.461v12.12c0 .516-.182.76-.73.76h-2.399c-.546 0-.73-.244-.73-.76V16.227c0-.516.184-.76.73-.76h2.399c.334 0 .517.091.637.304l6.107 10.48c.517.88 1.032 2.126 1.032 2.126v-12.15c0-.516.185-.76.73-.76h2.401c.546 0 .728.244.728.76v19.136zM110.29 15.468c.546 0 .789.182.789.73v1.883c0 .272-.09.455-.182.607l-7.776 14.034h7.715c.516 0 .76.183.76.73v1.912c0 .548-.244.76-.76.76H98.958c-.545 0-.758-.212-.758-.76v-1.912c0-.245.062-.395.121-.516l7.807-14.066h-6.652c-.518 0-.76-.212-.76-.76v-1.912c0-.548.242-.73.76-.73h10.813z"/>
        <g transform="translate(121.996 23.522)">
            <mask id="c" fill="#fff">
                <use xlink:href="#a"/>
            </mask>
            <path fill="url(#b)" d="M7.199.628a.548.548 0 0 0-.053.057L.402 8.3c-.465.529-.46 1.325.034 1.816.49.492 1.287.499 1.817.033L9.87 3.408l.056-.055c.637-.637.544-1.764-.209-2.516C9.3.419 8.767.205 8.267.205c-.403 0-.784.138-1.068.423" mask="url(#c)"/>
        </g>
        <g transform="translate(140.873 12.252)">
            <mask id="f" fill="#fff">
                <use xlink:href="#d"/>
            </mask>
            <path fill="url(#e)" d="M11.043.37L.37 8.965c-.306.25-.277.8.038 1.213v-.001c.317.412.84.582 1.161.352L12.634 2.44c.343-.251.255-.932-.183-1.504-.322-.42-.75-.672-1.086-.672a.5.5 0 0 0-.322.105" mask="url(#f)"/>
        </g>
        <g transform="translate(141.718 19.014)">
            <mask id="i" fill="#fff">
                <use xlink:href="#g"/>
            </mask>
            <path fill="url(#h)" d="M12.378.169L.49 7.569c-.341.216-.369.796-.086 1.276.282.479.803.736 1.158.542L13.797 2.58c.18-.1.27-.314.274-.583V1.96c-.005-.294-.108-.647-.308-.984h.001C13.451.444 12.99.1 12.628.1a.461.461 0 0 0-.25.069" mask="url(#i)"/>
        </g>
        <g transform="translate(137.774 6.617)">
            <mask id="l" fill="#fff">
                <use xlink:href="#j"/>
            </mask>
            <path fill="url(#k)" d="M9.682.204l-9.39 9.83c-.269.288-.177.819.178 1.174.357.357.889.448 1.174.18l9.832-9.39c.305-.29.139-.94-.359-1.436-.326-.327-.72-.511-1.034-.511a.534.534 0 0 0-.4.153" mask="url(#l)"/>
        </g>
        <g transform="translate(140.028 25.213)">
            <mask id="o" fill="#fff">
                <use xlink:href="#m"/>
            </mask>
            <path fill="url(#n)" d="M12.728.299c-.01.003-.019.009-.028.014L.43 6.368c-.42.217-.551.838-.297 1.39.25.551.803.855 1.241.686L14.012 3.19l.029-.012c.569-.26.737-1.115.375-1.909C14.124.63 13.579.224 13.08.224a.844.844 0 0 0-.352.075" mask="url(#o)"/>
        </g>
        <g transform="translate(135.238 29.439)">
            <mask id="r" fill="#fff">
                <use xlink:href="#p"/>
            </mask>
            <path fill="url(#q)" d="M12.322.214l-.051.022L.69 5.493c-.578.261-.83.962-.578 1.583.25.62.92.944 1.514.736l11.985-4.263.05-.02c.683-.276.939-1.242.568-2.158C13.928.623 13.3.14 12.708.14c-.131 0-.262.024-.386.074" mask="url(#r)"/>
        </g>
        <g transform="translate(128.476 29.157)">
            <mask id="u" fill="#fff">
                <use xlink:href="#s"/>
            </mask>
            <path fill="url(#t)" d="M10.227.403c-.022.01-.045.025-.066.037L.694 6.064C.089 6.431-.142 7.19.178 7.807c.323.617 1.078.862 1.724.577L11.94 3.856c.022-.01.046-.022.068-.035.8-.415 1.05-1.519.558-2.462-.364-.7-1.032-1.115-1.679-1.115a1.42 1.42 0 0 0-.66.16" mask="url(#u)"/>
        </g>
        <g transform="translate(132.984 2.11)">
            <mask id="x" fill="#fff">
                <use xlink:href="#v"/>
            </mask>
            <path fill="url(#w)" d="M8.391.453L.305 11.519c-.23.32-.06.845.352 1.161.411.316.96.344 1.212.038l8.594-10.675c.269-.33.006-.966-.566-1.405C9.561.38 9.188.243 8.886.243c-.213 0-.39.068-.495.21" mask="url(#x)"/>
        </g>
        <g transform="translate(127.35 .137)">
            <mask id="A" fill="#fff">
                <use xlink:href="#y"/>
            </mask>
            <path fill="url(#z)" d="M7.724.145c-.275 0-.495.09-.597.273L.321 12.653c-.194.353.061.876.54 1.158.481.281 1.06.253 1.277-.087l7.4-11.886c.23-.369-.141-.996-.806-1.387-.342-.202-.7-.305-.998-.306h-.01z" mask="url(#A)"/>
        </g>
        <g transform="translate(122.278 1.264)">
            <mask id="D" fill="#fff">
                <use xlink:href="#B"/>
            </mask>
            <path fill="url(#C)" d="M5.402.737c-.004.01-.01.02-.013.03L.137 13.402c-.17.439.133.994.685 1.244.552.251 1.173.122 1.39-.297l6.054-12.27.015-.029c.26-.57-.175-1.325-.97-1.688a2.05 2.05 0 0 0-.844-.19c-.485 0-.898.2-1.065.565" mask="url(#D)"/>
        </g>
        <g transform="translate(118.615 6.336)">
            <mask id="G" fill="#fff">
                <use xlink:href="#E"/>
            </mask>
            <path fill="url(#F)" d="M4.487.837c-.007.016-.013.033-.018.05L.205 12.867c-.208.595.115 1.266.735 1.517.621.25 1.324-.002 1.584-.58L7.78 2.226c.008-.017.017-.033.022-.05.277-.685-.24-1.54-1.155-1.91a2.275 2.275 0 0 0-.847-.169c-.604 0-1.123.268-1.312.74" mask="url(#G)"/>
        </g>
        <g transform="translate(118.333 14.506)">
            <mask id="J" fill="#fff">
                <use xlink:href="#H"/>
            </mask>
            <path fill="url(#I)" d="M4.758 1.08l-.033.07-4.53 10.035c-.283.648-.038 1.403.578 1.723.617.322 1.378.089 1.742-.514l5.624-9.467c.014-.021.025-.045.04-.067.415-.8-.015-1.847-.958-2.338A2.172 2.172 0 0 0 6.217.269c-.621 0-1.186.289-1.459.811" mask="url(#J)"/>
        </g>
    </g>
</svg>
