<svg xmlns="http://www.w3.org/2000/svg" xmlns:xlink="http://www.w3.org/1999/xlink" width="90" height="90" viewBox="0 0 90 90">
    <defs>
        <path id="a" d="M0 0h72.494v90H0z"/>
    </defs>
    <g fill="none" fill-rule="evenodd">
        <g transform="translate(5)">
            <mask id="b" fill="#fff">
                <use xlink:href="#a"/>
            </mask>
            <path fill="#6E7171" d="M72.494 62.951c-.736-1.823-1.744-3.592-3.152-5.01-2.074-2.09-4.667-3.15-7.708-3.15-10.588 0-13.413 12.04-13.43 18.415.007 2.035-.628 7.966-3.587 10.933C43.367 85.391 41.84 86 39.947 86c-9.855 0-10.012-13.052-10.014-13.605V56.593h.396a2 2 0 0 0 1.906-1.43c3.758-.375 8.976-1.457 11.937-4.53 3.995-4.153 16.147-32.56 9.979-43.679-2.83-5.099-9.798-5.588-13.85-5.402a3.516 3.516 0 1 0-2.917 5.481 3.508 3.508 0 0 0 2.86-1.482c3.48-.197 8.676.22 10.409 3.344 4.877 8.79-6.118 35.591-9.363 38.963-1.953 2.03-5.95 2.93-9.221 3.287a1.999 1.999 0 0 0-1.74-1.036h-4.792c-.75 0-1.397.423-1.74 1.036-3.271-.358-7.268-1.258-9.22-3.287C11.332 44.486.337 17.682 5.213 8.895c1.732-3.124 6.929-3.54 10.408-3.344a3.508 3.508 0 0 0 2.86 1.482 3.516 3.516 0 1 0-2.917-5.48c-4.051-.187-11.02.302-13.85 5.401-6.166 11.116 5.985 39.525 9.98 43.68 2.96 3.074 8.179 4.155 11.937 4.528a2 2 0 0 0 1.906 1.431h.396v15.802c0 6.09 2.929 17.605 14.015 17.605 2.968 0 5.49-1.022 7.5-3.036 4.727-4.738 4.758-13.402 4.757-13.758 0-.038.024-3.809 1.33-7.55 1.615-4.62 4.264-6.865 8.099-6.865 1.96 0 3.55.641 4.862 1.961.85.855 1.509 1.925 2.032 3.067a9.2 9.2 0 0 1 3.9-.872c.023 0 .045.004.066.004" mask="url(#b)"/>
        </g>
        <path fill="#E90649" d="M78.428 66.688a6.533 6.533 0 1 0-.001 13.067 6.533 6.533 0 0 0 .001-13.067"/>
    </g>
</svg>
