<svg xmlns="http://www.w3.org/2000/svg" xmlns:xlink="http://www.w3.org/1999/xlink" width="90" height="90" viewBox="0 0 90 90">
    <defs>
        <path id="a" d="M0 .337h71.324V81H.001z"/>
        <path id="c" d="M.032 0h33.26v22.767H.033z"/>
    </defs>
    <g fill="none" fill-rule="evenodd">
        <g transform="translate(9 9)">
            <mask id="b" fill="#fff">
                <use xlink:href="#a"/>
            </mask>
            <path fill="#6E7171" d="M65.543 81H5.78A5.787 5.787 0 0 1 0 75.219V6.118A5.787 5.787 0 0 1 5.78.337h7.471a2.046 2.046 0 1 1 0 4.092h-7.47c-.931 0-1.69.758-1.69 1.689v69.101c0 .932.758 1.69 1.69 1.69h59.762a1.69 1.69 0 0 0 1.69-1.69V6.118a1.69 1.69 0 0 0-1.69-1.689h-7.47a2.046 2.046 0 1 1 0-4.092h7.47a5.787 5.787 0 0 1 5.781 5.781v69.101A5.787 5.787 0 0 1 65.544 81" mask="url(#b)"/>
        </g>
        <path fill="#6E7171" d="M70.808 82.53H18.516a2.045 2.045 0 0 1-2.045-2.047v-61.63c0-1.13.915-2.046 2.045-2.046h3.735a2.046 2.046 0 1 1 0 4.092h-1.689v57.54h48.2v-57.54h-1.689a2.046 2.046 0 1 1 0-4.092h3.735c1.13 0 2.046.916 2.046 2.046v61.63c0 1.13-.916 2.046-2.046 2.046"/>
        <g transform="translate(28)">
            <mask id="d" fill="#fff">
                <use xlink:href="#c"/>
            </mask>
            <path fill="#6E7171" d="M4.123 18.676h25.079v-3.558a3.561 3.561 0 0 0-3.558-3.557h-1.511a2.046 2.046 0 0 1-2.046-2.045 5.43 5.43 0 0 0-5.424-5.425 5.431 5.431 0 0 0-5.425 5.425 2.046 2.046 0 0 1-2.046 2.045H7.68a3.561 3.561 0 0 0-3.558 3.557v3.558zm27.125 4.09H2.077a2.045 2.045 0 0 1-2.045-2.044v-5.604c0-4.112 3.263-7.476 7.334-7.642C8.303 3.206 12.116 0 16.663 0c4.548 0 8.359 3.206 9.296 7.476 4.07.166 7.334 3.53 7.334 7.642v5.604a2.045 2.045 0 0 1-2.045 2.045z" mask="url(#d)"/>
        </g>
        <path fill="#E90649" d="M61.294 38.596H28.032a2 2 0 0 1 0-4h33.261a2 2 0 0 1 0 4M61.294 52.596H28.032a2 2 0 0 1 0-4h33.261a2 2 0 0 1 0 4M44.663 66.596H28.032a2 2 0 0 1 0-4h16.63a2 2 0 0 1 0 4"/>
    </g>
</svg>
