<svg xmlns="http://www.w3.org/2000/svg" xmlns:xlink="http://www.w3.org/1999/xlink" width="90" height="90" viewBox="0 0 90 90">
    <defs>
        <path id="a" d="M0 0H48.87v22.695H0z"/>
    </defs>
    <g fill="none" fill-rule="evenodd">
        <path fill="#E90649" d="M51.044 75.044H26.74a2 2 0 0 1 0-4h22.305V35.783H26.74a2 2 0 0 1 0-4h24.305a2 2 0 0 1 2 2v39.26a2 2 0 0 1-2 2"/>
        <path fill="#6E7171" d="M62.261 90H28.61a3.873 3.873 0 0 1-3.869-3.869V20.695a2 2 0 0 1 4 0V86h33.391V20.695a2 2 0 0 1 4 0v65.436A3.873 3.873 0 0 1 62.261 90"/>
        <g transform="translate(21)">
            <mask id="b" fill="#fff">
                <use xlink:href="#a"/>
            </mask>
            <path fill="#6E7171" d="M4 18.695h40.87v-5.348H41.26a2 2 0 0 1-2-2V4H9.608v7.347a2 2 0 0 1-2 2H4v5.348zm42.87 4H2a2 2 0 0 1-2-2v-9.348a2 2 0 0 1 2-2h3.608V3.87A3.874 3.874 0 0 1 9.48 0h29.913a3.873 3.873 0 0 1 3.87 3.87v5.477h3.607a2 2 0 0 1 2 2v9.348a2 2 0 0 1-2 2z" mask="url(#b)"/>
        </g>
        <path fill="#6E7171" d="M62.261 13.348H49.174a2 2 0 0 1 0-4h13.087a2 2 0 0 1 0 4M34.218 13.348H28.61a2 2 0 0 1 0-4h5.61a2 2 0 0 1 0 4"/>
    </g>
</svg>
